<svg width="17" height="17" viewBox="0 0 17 17" fill="none" xmlns="http://www.w3.org/2000/svg">
<path fill-rule="evenodd" clip-rule="evenodd" d="M7.54265 10.3483L10.5902 15.2925C10.7235 15.5091 10.9318 15.5066 11.016 15.495C11.1002 15.4833 11.3027 15.4316 11.376 15.1858L15.1868 2.31497C15.2535 2.08747 15.131 1.93247 15.076 1.87747C15.0227 1.82247 14.8702 1.70497 14.6493 1.76747L1.76932 5.53914C1.52515 5.61081 1.47182 5.81581 1.46015 5.89997C1.44849 5.98581 1.44515 6.19831 1.66099 6.33414L6.66182 9.46164L11.0802 4.99664C11.3227 4.75164 11.7185 4.74914 11.9643 4.99164C12.2102 5.23414 12.2118 5.63081 11.9693 5.87581L7.54265 10.3483ZM10.951 16.75C10.371 16.75 9.83932 16.455 9.52599 15.9483L6.29515 10.7058L0.998488 7.39331C0.427654 7.03581 0.129321 6.39914 0.221821 5.72997C0.313488 5.06081 0.772654 4.52914 1.41765 4.33997L14.2977 0.568306C14.8902 0.394972 15.5252 0.559139 15.9618 0.994139C16.3985 1.43331 16.561 2.07497 16.3843 2.66997L12.5735 15.54C12.3827 16.1875 11.8493 16.645 11.1818 16.7341C11.1035 16.7441 11.0277 16.75 10.951 16.75Z" fill="white"/>
</svg>
